<svg width="26" height="26" viewBox="0 0 26 26" fill="none" xmlns="http://www.w3.org/2000/svg">
<path d="M19.8535 16.2319C18.0637 16.0691 17.0875 18.5103 15.7858 19.1613C13.6706 20.3005 9.76554 16.2319 9.76554 16.2319C9.76554 16.2319 5.69782 12.326 6.67407 10.2103C7.48762 8.90829 9.92825 7.93181 9.76554 6.1416C9.60283 4.51413 6.02323 -1.34474 4.23344 0.282726C0.328418 3.86315 0.00300073 5.32787 0.00300073 8.2573C-0.159708 13.3024 6.34865 19.6496 6.34865 19.6496C6.99949 20.3005 12.6943 26.1594 17.7383 25.9967C20.667 25.9967 22.1314 25.6712 25.711 21.7653C27.3381 19.9751 21.6433 16.3946 19.8535 16.2319Z" fill="#8748F4"/>
</svg>
