<svg width="22" height="26" viewBox="0 0 22 26" fill="none" xmlns="http://www.w3.org/2000/svg">
<path d="M11.0387 2.58395e-05C13.9634 0.0130534 16.7587 1.1832 18.8033 3.23745C20.861 5.3047 22.0127 8.10005 21.9999 10.9994V11.0644C21.9221 15.0039 19.7222 18.6313 16.9787 21.4657C15.4257 23.0649 13.7046 24.4821 11.8281 25.6782C11.3234 26.1073 10.5858 26.1073 10.0811 25.6782C7.29875 23.858 4.83995 21.5697 2.84703 18.9044C1.09999 16.5901 0.103528 13.8078 0 10.9084C0.0258821 4.86265 4.96936 -0.0129498 11.0387 2.58395e-05ZM11.0387 7.71C9.1105 7.71 7.55757 9.25719 7.55757 11.1814C7.55757 13.081 9.08462 14.6138 10.9999 14.6399H11.0387C11.9575 14.6399 12.8375 14.2888 13.4846 13.6517C14.1575 12.9886 14.5341 12.1058 14.5341 11.1814C14.5341 9.25719 12.9669 7.71 11.0387 7.71Z" fill="#8748F4"/>
</svg>
