<svg width="30" height="21" viewBox="0 0 30 21" fill="none" xmlns="http://www.w3.org/2000/svg">
<path d="M27.0483 0.5C27.3963 0.502631 27.7392 0.573222 28.0596 0.706379L15 9.39936L1.94041 0.706379C2.26083 0.573222 2.60369 0.502631 2.95173 0.5H27.0483Z" fill="#8748F4" stroke="#8748F4"/>
<path d="M15.0607 11.8571C15.1789 11.8429 15.295 11.8154 15.4067 11.7751H15.5082L15.6093 11.7275L15.7914 11.6418L15.8211 11.6279L15.8487 11.6102L29.5 2.84637V17.7869C29.5 18.5064 29.2141 19.1965 28.7051 19.7053C28.1961 20.2141 27.5056 20.5 26.7857 20.5H3.21429C2.49435 20.5 1.80394 20.2141 1.29493 19.7053C0.785923 19.1965 0.5 18.5064 0.5 17.7869V2.84906L14.193 11.6951L14.2211 11.7133L14.2515 11.7275L14.4336 11.8132L14.5347 11.8608H14.6464H14.7038C14.8225 11.8731 14.9422 11.8719 15.0607 11.8571ZM15.0607 11.8571C15.0613 11.857 15.0619 11.8569 15.0625 11.8568L15 11.3608L15.0589 11.8573C15.0595 11.8572 15.0601 11.8571 15.0607 11.8571Z" fill="#8748F4" stroke="#8748F4"/>
</svg>
