<svg width="56" height="56" viewBox="0 0 56 56" fill="none" xmlns="http://www.w3.org/2000/svg">
<g clip-path="url(#clip0_1339_4933)">
<path d="M28 14.873C27.5161 14.873 27.125 14.4819 27.125 13.998V12.248C27.125 11.7642 27.5161 11.373 28 11.373C28.4839 11.373 28.875 11.7642 28.875 12.248V13.998C28.875 14.4819 28.4839 14.873 28 14.873Z" fill="#8748F4"/>
<path d="M55.0357 3.86133H31.8633V5.79236H55.0357V3.86133Z" fill="#8748F4"/>
<path d="M29.75 8.74219V12.2422H28H26.25V8.74219H29.75Z" fill="#CCD1D9"/>
<path d="M31.5 6.125V8.74125H29.75H26.25H24.5V6.125V3.5V0.875H31.5V3.5V6.125Z" fill="#E6E9ED"/>
<path d="M24.1373 3.86133H0.964844V5.79236H24.1373V3.86133Z" fill="#8748F4"/>
<path d="M55.125 56H0.875C0.391125 56 0 55.6089 0 55.125C0 54.6411 0.391125 54.25 0.875 54.25H55.125C55.6089 54.25 56 54.6411 56 55.125C56 55.6089 55.6089 56 55.125 56Z" fill="#8748F4"/>
<path d="M26.25 13.123C25.7661 13.123 25.375 12.7319 25.375 12.248V8.74805C25.375 8.26417 25.7661 7.87305 26.25 7.87305C26.7339 7.87305 27.125 8.26417 27.125 8.74805V12.248C27.125 12.7319 26.7339 13.123 26.25 13.123Z" fill="#CCD1D9"/>
<path d="M29.75 13.123H26.25C25.7661 13.123 25.375 12.7319 25.375 12.248C25.375 11.7642 25.7661 11.373 26.25 11.373H29.75C30.2339 11.373 30.625 11.7642 30.625 12.248C30.625 12.7319 30.2339 13.123 29.75 13.123Z" fill="#CCD1D9"/>
<path d="M29.75 13.123C29.2661 13.123 28.875 12.7319 28.875 12.248V8.74805C28.875 8.26417 29.2661 7.87305 29.75 7.87305C30.2339 7.87305 30.625 8.26417 30.625 8.74805V12.248C30.625 12.7319 30.2339 13.123 29.75 13.123Z" fill="#CCD1D9"/>
<path d="M28.0026 26.2587C27.5187 26.2587 27.1276 25.8676 27.1276 25.3837C27.1276 23.9364 28.3062 22.7578 29.7535 22.7578C30.2374 22.7578 30.6285 23.1489 30.6285 23.6328C30.6285 24.1167 30.2374 24.5078 29.7535 24.5078C29.2705 24.5078 28.8776 24.9007 28.8776 25.3837C28.8776 25.8676 28.4865 26.2587 28.0026 26.2587ZM26.2517 19.2578C25.7679 19.2578 25.3768 18.8667 25.3768 18.3828C25.3768 17.8989 25.7679 17.5078 26.2517 17.5078C26.7347 17.5078 27.1276 17.1158 27.1276 16.6328C27.1276 16.1489 27.5187 15.7578 28.0026 15.7578C28.4865 15.7578 28.8776 16.1489 28.8776 16.6328C28.8776 18.0801 27.699 19.2578 26.2517 19.2578ZM41.5678 24.5078C41.0839 24.5078 40.6928 24.1167 40.6928 23.6328C40.6928 23.1489 41.0839 22.7578 41.5678 22.7578C41.8084 22.7578 42.0053 22.5609 42.0053 22.3203C42.0053 22.0797 41.8084 21.8828 41.5678 21.8828C41.0839 21.8828 40.6928 21.4917 40.6928 21.0078C40.6928 20.5239 41.0839 20.1328 41.5678 20.1328C42.7744 20.1328 43.7553 21.1137 43.7553 22.3203C43.7553 23.5269 42.7744 24.5078 41.5678 24.5078ZM14.4375 21.8828C13.2309 21.8828 12.25 20.9019 12.25 19.6953C12.25 18.4887 13.2309 17.5078 14.4375 17.5078C14.9214 17.5078 15.3125 17.8989 15.3125 18.3828C15.3125 18.8667 14.9214 19.2578 14.4375 19.2578C14.1969 19.2578 14 19.4547 14 19.6953C14 19.9359 14.1969 20.1328 14.4375 20.1328C14.9214 20.1328 15.3125 20.5239 15.3125 21.0078C15.3125 21.4917 14.9214 21.8828 14.4375 21.8828Z" fill="#8748F4"/>
<path d="M41.5677 24.5096H29.7535C29.2696 24.5096 28.8785 24.1184 28.8785 23.6346C28.8785 23.1507 29.2696 22.7596 29.7535 22.7596H41.5677C42.0516 22.7596 42.4427 23.1507 42.4427 23.6346C42.4427 24.1184 42.0516 24.5096 41.5677 24.5096ZM41.5677 21.8828H14.4375C13.9536 21.8828 13.5625 21.4917 13.5625 21.0078C13.5625 20.5239 13.9536 20.1328 14.4375 20.1328H41.5677C42.0516 20.1328 42.4427 20.5239 42.4427 21.0078C42.4427 21.4917 42.0516 21.8828 41.5677 21.8828ZM26.2517 19.2578H14.4375C13.9536 19.2578 13.5625 18.8667 13.5625 18.3828C13.5625 17.8989 13.9536 17.5078 14.4375 17.5078H26.2517C26.7356 17.5078 27.1267 17.8989 27.1267 18.3828C27.1267 18.8667 26.7356 19.2578 26.2517 19.2578ZM28.0026 27.1319C27.5187 27.1319 27.1276 26.7408 27.1276 26.2569V25.3837C27.1276 24.8998 27.5187 24.5087 28.0026 24.5087C28.4865 24.5087 28.8776 24.8998 28.8776 25.3837V26.2569C28.8776 26.7408 28.4865 27.1319 28.0026 27.1319Z" fill="#8748F4"/>
<path d="M11 38.499H45.0112C44.95 39.4002 44.81 40.2752 44.5991 41.124H11.4025H11.3938C11.1925 40.2752 11.0525 39.4002 11 38.499ZM13.6425 27.999H42.36L42.3687 27.9902C42.9025 28.8215 43.3663 29.7052 43.7425 30.624H12.2775L12.2591 30.6152C12.6441 29.6965 13.1088 28.8215 13.6329 27.9902L13.6425 27.999Z" fill="#8748F4"/>
<path d="M15.7483 49H40.3095C39.3558 49.9984 38.2795 50.8813 37.0983 51.625H37.0895H18.907H18.8983C17.7345 50.89 16.667 50.015 15.7133 49.0262L15.7483 49ZM11.3995 33.25H44.597C44.807 34.0996 44.9392 34.9825 45.0092 35.875H10.9883C11.0583 34.9825 11.1895 34.0996 11.3995 33.25Z" fill="#8748F4"/>
<path d="M43.7325 43.75L43.75 43.7587C43.3738 44.6784 42.91 45.5534 42.3763 46.375H13.6237C13.09 45.5438 12.6254 44.6687 12.25 43.75H43.7325Z" fill="#8748F4"/>
<path d="M31.5 9.62325H24.5C24.0161 9.62325 23.625 9.23213 23.625 8.74825V0.875C23.625 0.391125 24.0161 0 24.5 0H31.5C31.9839 0 32.375 0.391125 32.375 0.875V8.74825C32.375 9.23213 31.9839 9.62325 31.5 9.62325ZM25.375 7.87325H30.625V1.75H25.375V7.87325Z" fill="#E6E9ED"/>
</g>
<defs>
<clipPath id="clip0_1339_4933">
<rect width="56" height="56" fill="white"/>
</clipPath>
</defs>
</svg>
