<svg width="61" height="61" viewBox="0 0 61 61" fill="none" xmlns="http://www.w3.org/2000/svg">
<path d="M53.3754 47.6562C52.1887 47.6562 51.0318 48.0279 50.0671 48.719L47.2373 45.8892C48.3781 45.2191 49.5171 44.2574 49.5629 42.822V29.4782C49.6198 28.8861 49.5151 28.2896 49.26 27.7522C49.0049 27.2148 48.6089 26.7566 48.1141 26.4263L32.3637 15.82C32.0835 15.631 31.7763 15.4854 31.4526 15.3882V13.258C38.2722 11.9655 37.4925 2.06828 30.5004 1.90625C23.5073 2.06828 22.7296 11.9674 29.5473 13.258V15.3882C29.2238 15.4854 28.917 15.631 28.637 15.82L12.8866 26.4263C12.3919 26.7566 11.9959 27.2148 11.7408 27.7522C11.4857 28.2896 11.381 28.8861 11.4379 29.4782V42.822C11.5313 43.4893 11.7941 44.1215 12.2012 44.6585C12.6083 45.1954 13.1462 45.6191 13.7635 45.8892L10.9337 48.719C10.2004 48.1978 9.35442 47.857 8.46459 47.7244C7.57476 47.5918 6.66619 47.6711 5.8128 47.9559C4.95941 48.2407 4.18528 48.7229 3.55341 49.3633C2.92153 50.0037 2.44974 50.7842 2.17642 51.6413C1.9031 52.4985 1.83596 53.408 1.98047 54.296C2.12498 55.184 2.47706 56.0253 3.00806 56.7515C3.53906 57.4778 4.23399 58.0684 5.03632 58.4754C5.83865 58.8824 6.72572 59.0943 7.62538 59.0938C8.67033 59.0839 9.69277 58.789 10.5825 58.241C11.4723 57.693 12.1957 56.9126 12.6747 55.9838C13.1537 55.0551 13.3702 54.0133 13.3009 52.9706C13.2316 51.9279 12.8791 50.9239 12.2814 50.0667L15.3743 46.9748L28.637 55.9103C29.188 56.2819 29.8376 56.4803 30.5023 56.4798C31.1669 56.4792 31.8162 56.2799 32.3666 55.9075L45.6274 46.9748L48.7194 50.0667C48.1219 50.9239 47.7696 51.9278 47.7004 52.9703C47.6313 54.0129 47.8478 55.0545 48.3268 55.9831C48.8058 56.9117 49.5291 57.692 50.4187 58.2399C51.3083 58.7879 52.3306 59.0828 53.3754 59.0928C60.9327 58.8545 60.9318 47.8955 53.3754 47.6562ZM7.62538 57.1875C6.61424 57.1875 5.64452 56.7858 4.92954 56.0708C4.21455 55.3559 3.81288 54.3861 3.81288 53.375C3.81288 52.3639 4.21455 51.3941 4.92954 50.6792C5.64452 49.9642 6.61424 49.5625 7.62538 49.5625C8.63652 49.5625 9.60624 49.9642 10.3212 50.6792C11.0362 51.3941 11.4379 52.3639 11.4379 53.375C11.4379 54.3861 11.0362 55.3559 10.3212 56.0708C9.60624 56.7858 8.63652 57.1875 7.62538 57.1875ZM26.6879 7.625C26.6879 6.61386 27.0896 5.64414 27.8045 4.92916C28.5195 4.21417 29.4892 3.8125 30.5004 3.8125C31.5115 3.8125 32.4812 4.21417 33.1962 4.92916C33.9112 5.64414 34.3129 6.61386 34.3129 7.625C34.3129 8.63614 33.9112 9.60586 33.1962 10.3208C32.4812 11.0358 31.5115 11.4375 30.5004 11.4375C29.4892 11.4375 28.5195 11.0358 27.8045 10.3208C27.0896 9.60586 26.6879 8.63614 26.6879 7.625ZM13.9522 28.0066L29.5473 17.5041V28.5938C29.5473 28.8465 29.6477 29.089 29.8264 29.2677C30.0052 29.4465 30.2476 29.5469 30.5004 29.5469C30.7532 29.5469 30.9956 29.4465 31.1743 29.2677C31.3531 29.089 31.4535 28.8465 31.4535 28.5938V17.5041L47.0485 28.0066C47.2416 28.1386 47.3995 28.3156 47.5087 28.5224C47.6178 28.7292 47.6748 28.9594 47.6748 29.1933C47.6748 29.4271 47.6178 29.6574 47.5087 29.8642C47.3995 30.0709 47.2416 30.248 47.0485 30.3799L31.2991 40.9844C31.0632 41.1436 30.785 41.2287 30.5004 41.2287C30.2157 41.2287 29.9376 41.1436 29.7017 40.9844L13.9522 30.379C13.7592 30.247 13.6012 30.07 13.4921 29.8632C13.383 29.6564 13.3259 29.4261 13.3259 29.1923C13.3259 28.9585 13.383 28.7282 13.4921 28.5214C13.6012 28.3146 13.7592 28.1376 13.9522 28.0057V28.0066ZM16.7468 45.6013L19.7367 42.6114C19.9104 42.4316 20.0064 42.1908 20.0043 41.9409C20.0021 41.691 19.9018 41.452 19.7251 41.2752C19.5484 41.0985 19.3094 40.9983 19.0595 40.9961C18.8095 40.9939 18.5688 41.09 18.389 41.2636L15.136 44.5167L13.9456 43.7141C13.7833 43.6065 13.6457 43.4656 13.542 43.3008C13.4383 43.136 13.3709 42.951 13.3441 42.7581V32.2671L28.637 42.5666C28.9169 42.7553 29.2238 42.9005 29.5473 42.9974V54.2252L16.7468 45.6013ZM31.4535 54.2252V42.9974C31.777 42.9003 32.0839 42.7547 32.3637 42.5656L47.6566 32.2671V42.7581C47.6292 42.9523 47.5606 43.1385 47.4556 43.3041C47.3506 43.4698 47.2115 43.6112 47.0476 43.7189L45.8648 44.5167L42.6117 41.2636C42.432 41.09 42.1912 40.9939 41.9413 40.9961C41.6914 40.9983 41.4523 41.0985 41.2756 41.2752C41.0989 41.452 40.9987 41.691 40.9965 41.9409C40.9943 42.1908 41.0904 42.4316 41.264 42.6114L44.254 45.6013L31.4535 54.2252ZM53.3754 57.1875C52.3642 57.1875 51.3945 56.7858 50.6795 56.0708C49.9646 55.3559 49.5629 54.3861 49.5629 53.375C49.5629 52.3639 49.9646 51.3941 50.6795 50.6792C51.3945 49.9642 52.3642 49.5625 53.3754 49.5625C54.3865 49.5625 55.3562 49.9642 56.0712 50.6792C56.7862 51.3941 57.1879 52.3639 57.1879 53.375C57.1879 54.3861 56.7862 55.3559 56.0712 56.0708C55.3562 56.7858 54.3865 57.1875 53.3754 57.1875Z" fill="#8647F4"/>
</svg>
