<svg width="52" height="52" viewBox="0 0 52 52" fill="none" xmlns="http://www.w3.org/2000/svg">
<g clip-path="url(#clip0_1339_4949)">
<path d="M39.1125 4.54007L31.8711 0.38616C31.1195 -0.0505585 30.2258 -0.111496 29.4133 0.193192C28.6008 0.508035 27.9914 1.15804 27.7172 1.98069L27.0062 4.1846C26.9047 4.48928 26.6203 4.69241 26.3055 4.69241H22.6594C22.3344 4.69241 22.0602 4.48928 21.9586 4.17444L21.2477 1.97054C20.9836 1.14788 20.3641 0.497879 19.5516 0.183035C18.7391 -0.131808 17.8453 -0.0607147 17.0938 0.365848L9.84219 4.52991C8.4 5.36272 7.49609 6.90647 7.49609 8.5721V10.2682C7.49609 12.0862 8.97891 13.569 10.7969 13.569H18.7492V20.0487L16.3625 20.7698C15.8039 20.9424 15.4891 21.5315 15.6516 22.0901C15.8242 22.6487 16.4133 22.9737 16.9719 22.801L18.7391 22.2627V27.2291L16.3523 27.9502C15.7937 28.1229 15.4789 28.7119 15.6414 29.2705C15.8141 29.8291 16.4031 30.1541 16.9617 29.9815L18.7289 29.4432V34.4096L16.3422 35.1307C15.7836 35.3033 15.4687 35.8924 15.6312 36.451C15.8039 37.0096 16.393 37.3346 16.9516 37.1619L18.7188 36.6237V41.5901L16.332 42.3112C15.7734 42.4838 15.4586 43.0729 15.6211 43.6315C15.7937 44.1901 16.3828 44.5151 16.9414 44.3424L18.7086 43.8041V47.0135C18.7086 47.3283 18.8508 47.633 19.0945 47.8362C20.943 49.3698 21.9281 50.2026 23.7359 51.726C23.9289 51.8885 24.193 51.9698 24.4367 51.9698C24.6805 51.9698 24.9242 51.8783 25.1172 51.726C27.2398 49.9385 28.357 49.0041 29.7586 47.8362C30.0023 47.633 30.1445 47.3385 30.1445 47.0135V40.3408L32.5312 39.6198C33.0898 39.4471 33.4047 38.858 33.2422 38.2994C33.0797 37.7408 32.4805 37.426 31.9219 37.5885L30.1547 38.1268V33.1604L32.5414 32.4393C33.1 32.2666 33.4148 31.6776 33.2523 31.119C33.0898 30.5604 32.4906 30.2455 31.932 30.408L30.1648 30.9463V25.9799L32.5516 25.2588C33.1102 25.0862 33.425 24.4971 33.2625 23.9385C33.1 23.3799 32.5008 23.0651 31.9422 23.2276L30.175 23.7658V18.7994L32.5617 18.0783C33.1203 17.9057 33.4352 17.3166 33.2727 16.758C33.1102 16.1994 32.5109 15.8744 31.9523 16.0471L30.1852 16.5854V13.5588H38.1375C39.9555 13.5588 41.4383 12.076 41.4383 10.258V8.58225C41.4484 6.91663 40.5547 5.37288 39.1125 4.54007ZM28.0727 46.5463C26.9758 47.4604 26.2344 48.0799 24.4773 49.5627C23.675 48.8924 22.3445 47.7651 20.882 46.5463V43.1948L28.0727 41.0213V46.5463ZM28.0727 38.7971L20.882 40.9705V36.0041L28.0727 33.8307V38.7971ZM28.0727 31.6166L20.882 33.7901V28.8237L28.0727 26.6502V31.6166ZM28.0727 24.4362L20.8719 26.6096V21.6432L28.0625 19.4698V24.4362H28.0727ZM28.0727 17.2557L20.882 19.4291V13.5893H28.0727V17.2557ZM39.3258 10.2885C39.3258 10.9385 38.7977 11.4666 38.1477 11.4666H10.7969C10.1469 11.4666 9.61875 10.9385 9.61875 10.2885V8.59241C9.61875 7.6885 10.1063 6.83538 10.8984 6.3885L18.15 2.22444C18.282 2.15335 18.4039 2.12288 18.5156 2.12288C18.6273 2.12288 18.7188 2.15335 18.7898 2.17366C18.9117 2.22444 19.1352 2.34632 19.2266 2.64085L19.9375 4.84475C20.3234 6.03303 21.4203 6.82522 22.6594 6.82522H26.3055C27.5547 6.82522 28.6414 6.03303 29.0273 4.84475L29.7383 2.64085C29.8297 2.34632 30.0531 2.22444 30.175 2.17366C30.2969 2.12288 30.5406 2.0721 30.8148 2.22444L38.0461 6.37835C38.8383 6.83538 39.3258 7.67835 39.3258 8.58225V10.2885Z" fill="white"/>
</g>
<defs>
<clipPath id="clip0_1339_4949">
<rect width="52" height="52" fill="white"/>
</clipPath>
</defs>
</svg>
