<svg width="21" height="21" viewBox="0 0 21 21" fill="none" xmlns="http://www.w3.org/2000/svg">
<g clip-path="url(#clip0_1339_5232)">
<path d="M5.32515 20.9257C4.51288 20.9166 3.70826 20.7676 2.94659 20.4853C2.39039 20.2797 1.88716 19.9524 1.47371 19.5273C1.04748 19.1147 0.7197 18.6113 0.514706 18.0546C0.232596 17.293 0.0838316 16.4885 0.0749412 15.6763C0.0125588 14.3261 0 13.9211 0 10.5C0 7.07885 0.0137941 6.67532 0.0743235 5.32412C0.0842929 4.51228 0.23324 3.70814 0.514706 2.94659C0.720697 2.39029 1.04802 1.88687 1.47288 1.47288C1.88583 1.04704 2.38929 0.719563 2.94597 0.514706C3.70764 0.232362 4.51226 0.0833882 5.32453 0.0743235C6.67512 0.0125588 7.08071 0 10.5 0C13.9193 0 14.3247 0.0137941 15.6759 0.0743235C16.4879 0.0842224 17.2923 0.233171 18.054 0.514706C18.6105 0.719834 19.1138 1.0472 19.5269 1.47268C19.9525 1.88593 20.28 2.38939 20.4853 2.94597C20.7677 3.70763 20.9167 4.51225 20.9259 5.32453C20.9876 6.67573 21.0002 7.08029 21.0002 10.5004C21.0002 13.9205 20.9876 14.3251 20.9259 15.6763C20.9161 16.4884 20.7671 17.2929 20.4853 18.0546C20.2722 18.6071 19.9457 19.1087 19.527 19.5274C19.1083 19.946 18.6065 20.2723 18.054 20.4853C17.2924 20.7677 16.4877 20.9167 15.6755 20.9259C14.3255 20.9876 13.9197 21.0002 10.4996 21.0002C7.07947 21.0002 6.67491 20.9883 5.32494 20.9259" fill="url(#paint0_radial_1339_5232)"/>
<path d="M5.32515 20.9257C4.51288 20.9166 3.70826 20.7676 2.94659 20.4853C2.39039 20.2797 1.88716 19.9524 1.47371 19.5273C1.04748 19.1147 0.7197 18.6113 0.514706 18.0546C0.232596 17.293 0.0838316 16.4885 0.0749412 15.6763C0.0125588 14.3261 0 13.9211 0 10.5C0 7.07885 0.0137941 6.67532 0.0743235 5.32412C0.0842929 4.51228 0.23324 3.70814 0.514706 2.94659C0.720697 2.39029 1.04802 1.88687 1.47288 1.47288C1.88583 1.04704 2.38929 0.719563 2.94597 0.514706C3.70764 0.232362 4.51226 0.0833882 5.32453 0.0743235C6.67512 0.0125588 7.08071 0 10.5 0C13.9193 0 14.3247 0.0137941 15.6759 0.0743235C16.4879 0.0842224 17.2923 0.233171 18.054 0.514706C18.6105 0.719834 19.1138 1.0472 19.5269 1.47268C19.9525 1.88593 20.28 2.38939 20.4853 2.94597C20.7677 3.70763 20.9167 4.51225 20.9259 5.32453C20.9876 6.67573 21.0002 7.08029 21.0002 10.5004C21.0002 13.9205 20.9876 14.3251 20.9259 15.6763C20.9161 16.4884 20.7671 17.2929 20.4853 18.0546C20.2722 18.6071 19.9457 19.1087 19.527 19.5274C19.1083 19.946 18.6065 20.2723 18.054 20.4853C17.2924 20.7677 16.4877 20.9167 15.6755 20.9259C14.3255 20.9876 13.9197 21.0002 10.4996 21.0002C7.07947 21.0002 6.67491 20.9883 5.32494 20.9259" fill="url(#paint1_radial_1339_5232)"/>
<path d="M7.92016 10.5452C7.9202 10.0309 8.07277 9.52811 8.35856 9.10048C8.64434 8.67285 9.05052 8.33957 9.52573 8.14279C10.0009 7.946 10.5238 7.89456 11.0283 7.99496C11.5327 8.09536 11.9961 8.34308 12.3597 8.70682C12.7234 9.07055 12.971 9.53396 13.0713 10.0384C13.1715 10.5429 13.12 11.0658 12.9231 11.5409C12.7262 12.0161 12.3928 12.4222 11.9651 12.7079C11.5374 12.9936 11.0346 13.146 10.5203 13.1459C9.83059 13.1458 9.16921 12.8718 8.68161 12.384C8.194 11.8963 7.92011 11.2349 7.92016 10.5452ZM6.51419 10.5452C6.51419 11.3376 6.74914 12.1121 7.18933 12.7709C7.62952 13.4297 8.25519 13.9431 8.9872 14.2463C9.71921 14.5496 10.5247 14.6289 11.3018 14.4743C12.0789 14.3197 12.7927 13.9382 13.353 13.3779C13.9132 12.8177 14.2948 12.1039 14.4493 11.3268C14.6039 10.5497 14.5246 9.74419 14.2214 9.01217C13.9182 8.28016 13.4047 7.6545 12.7459 7.21431C12.0871 6.77412 11.3126 6.53917 10.5203 6.53917C9.99416 6.53914 9.47322 6.64274 8.98717 6.84406C8.50112 7.04537 8.05948 7.34045 7.68748 7.71245C7.31547 8.08446 7.02039 8.52609 6.81908 9.01214C6.61777 9.49819 6.51416 10.0191 6.51419 10.5452ZM13.7487 6.38043C13.7486 6.56558 13.8034 6.7466 13.9062 6.9006C14.009 7.05459 14.1552 7.17464 14.3262 7.24557C14.4972 7.3165 14.6855 7.33513 14.8671 7.29909C15.0487 7.26305 15.2155 7.17396 15.3465 7.04309C15.4775 6.91223 15.5667 6.74546 15.6029 6.56388C15.6391 6.38231 15.6207 6.19407 15.5499 6.02298C15.4791 5.85189 15.3592 5.70563 15.2053 5.6027C15.0514 5.49977 14.8704 5.44478 14.6852 5.4447C14.4371 5.44481 14.1991 5.54342 14.0236 5.71887C13.848 5.89432 13.7493 6.13226 13.7491 6.38043M7.36881 16.8957C6.8741 16.8902 6.38401 16.7997 5.92001 16.628C5.58351 16.4983 5.2779 16.2996 5.02284 16.0447C4.76779 15.7897 4.56894 15.4842 4.4391 15.1477C4.26735 14.6838 4.17681 14.1937 4.17146 13.6989C4.13357 12.8766 4.12616 12.6296 4.12616 10.5463C4.12616 8.46293 4.1344 8.21649 4.17146 7.39338C4.17746 6.89872 4.26797 6.40873 4.4391 5.94458C4.56879 5.60798 4.76758 5.30229 5.02265 5.04722C5.27772 4.79215 5.58341 4.59336 5.92001 4.46367C6.38399 4.29192 6.87409 4.20138 7.36881 4.19602C8.1911 4.15814 8.43816 4.15073 10.5207 4.15073C12.6032 4.15073 12.8504 4.15876 13.6735 4.19623C14.1682 4.20223 14.6582 4.29275 15.1223 4.46388C15.4589 4.59358 15.7646 4.79237 16.0197 5.04744C16.2748 5.30251 16.4735 5.60819 16.6032 5.94479C16.775 6.40877 16.8655 6.89887 16.8709 7.39358C16.9088 8.21711 16.9162 8.46294 16.9162 10.5465C16.9162 12.63 16.9086 12.8762 16.8709 13.6993C16.8651 14.194 16.7746 14.6841 16.6032 15.1481C16.4734 15.4846 16.2746 15.7901 16.0195 16.0451C15.7644 16.3 15.4588 16.4987 15.1223 16.6284C14.6584 16.8002 14.1683 16.8907 13.6735 16.8961C12.8512 16.934 12.6042 16.9414 10.5207 16.9414C8.43713 16.9414 8.1909 16.9338 7.36881 16.8961M7.30416 2.79129C6.65683 2.80402 6.01636 2.92654 5.41004 3.15364C4.89173 3.35404 4.42102 3.66053 4.02808 4.05347C3.63514 4.44641 3.32865 4.91713 3.12825 5.43543C2.90118 6.04176 2.77866 6.68223 2.7659 7.32955C2.7274 8.16132 2.71875 8.42732 2.71875 10.5461C2.71875 12.6648 2.7276 12.9306 2.7659 13.7626C2.77865 14.4099 2.90117 15.0503 3.12825 15.6567C3.32866 16.175 3.63516 16.6457 4.0281 17.0386C4.42103 17.4316 4.89174 17.7381 5.41004 17.9385C6.01639 18.1655 6.65684 18.288 7.30416 18.3008C8.13634 18.3387 8.40192 18.348 10.5207 18.348C12.6394 18.348 12.9052 18.3391 13.7372 18.3008C14.3845 18.288 15.0249 18.1655 15.6313 17.9385C16.1496 17.7381 16.6203 17.4316 17.0132 17.0386C17.4062 16.6457 17.7127 16.175 17.9131 15.6567C18.1404 15.0504 18.263 14.4099 18.2754 13.7626C18.3133 12.9302 18.322 12.6648 18.322 10.5461C18.322 8.42732 18.3131 8.16152 18.2754 7.32955C18.2627 6.68222 18.1402 6.04175 17.9131 5.43543C17.7127 4.91722 17.4063 4.44658 17.0134 4.05366C16.6206 3.66073 16.1501 3.35418 15.6319 3.15364C15.0256 2.92639 14.3851 2.80386 13.7378 2.79129C12.9058 2.7532 12.64 2.74414 10.5217 2.74414C8.40337 2.74414 8.13695 2.75299 7.30457 2.79129" fill="white"/>
</g>
<defs>
<radialGradient id="paint0_radial_1339_5232" cx="0" cy="0" r="1" gradientUnits="userSpaceOnUse" gradientTransform="translate(1.35903 20.5401) scale(26.6622)">
<stop offset="0.09" stop-color="#FA8F21"/>
<stop offset="0.78" stop-color="#D82D7E"/>
</radialGradient>
<radialGradient id="paint1_radial_1339_5232" cx="0" cy="0" r="1" gradientUnits="userSpaceOnUse" gradientTransform="translate(14.546 19.8656) scale(23.463)">
<stop offset="0.64" stop-color="#8C3AAA" stop-opacity="0"/>
<stop offset="1" stop-color="#8C3AAA"/>
</radialGradient>
<clipPath id="clip0_1339_5232">
<rect width="21" height="21" fill="white"/>
</clipPath>
</defs>
</svg>
